G04 #@! TF.GenerationSoftware,KiCad,Pcbnew,5.1.5+dfsg1-2build2*
G04 #@! TF.CreationDate,2021-04-05T17:16:35+02:00*
G04 #@! TF.ProjectId,opto_board,6f70746f-5f62-46f6-9172-642e6b696361,rev?*
G04 #@! TF.SameCoordinates,Original*
G04 #@! TF.FileFunction,Legend,Top*
G04 #@! TF.FilePolarity,Positive*
%FSLAX46Y46*%
G04 Gerber Fmt 4.6, Leading zero omitted, Abs format (unit mm)*
G04 Created by KiCad (PCBNEW 5.1.5+dfsg1-2build2) date 2021-04-05 17:16:35*
%MOMM*%
%LPD*%
G04 APERTURE LIST*
%ADD10C,0.100000*%
%ADD11C,0.200000*%
%ADD12C,0.120000*%
%ADD13C,0.150000*%
G04 APERTURE END LIST*
D10*
X148482095Y-108025714D02*
X148444000Y-107987619D01*
X148405904Y-107911428D01*
X148405904Y-107720952D01*
X148444000Y-107644761D01*
X148482095Y-107606666D01*
X148558285Y-107568571D01*
X148634476Y-107568571D01*
X148748761Y-107606666D01*
X149205904Y-108063809D01*
X149205904Y-107568571D01*
X148405904Y-107073333D02*
X148405904Y-106997142D01*
X148444000Y-106920952D01*
X148482095Y-106882857D01*
X148558285Y-106844761D01*
X148710666Y-106806666D01*
X148901142Y-106806666D01*
X149053523Y-106844761D01*
X149129714Y-106882857D01*
X149167809Y-106920952D01*
X149205904Y-106997142D01*
X149205904Y-107073333D01*
X149167809Y-107149523D01*
X149129714Y-107187619D01*
X149053523Y-107225714D01*
X148901142Y-107263809D01*
X148710666Y-107263809D01*
X148558285Y-107225714D01*
X148482095Y-107187619D01*
X148444000Y-107149523D01*
X148405904Y-107073333D01*
X148482095Y-106501904D02*
X148444000Y-106463809D01*
X148405904Y-106387619D01*
X148405904Y-106197142D01*
X148444000Y-106120952D01*
X148482095Y-106082857D01*
X148558285Y-106044761D01*
X148634476Y-106044761D01*
X148748761Y-106082857D01*
X149205904Y-106540000D01*
X149205904Y-106044761D01*
X149205904Y-105282857D02*
X149205904Y-105740000D01*
X149205904Y-105511428D02*
X148405904Y-105511428D01*
X148520190Y-105587619D01*
X148596380Y-105663809D01*
X148634476Y-105740000D01*
X148901142Y-104940000D02*
X148901142Y-104330476D01*
X148405904Y-103797142D02*
X148405904Y-103720952D01*
X148444000Y-103644761D01*
X148482095Y-103606666D01*
X148558285Y-103568571D01*
X148710666Y-103530476D01*
X148901142Y-103530476D01*
X149053523Y-103568571D01*
X149129714Y-103606666D01*
X149167809Y-103644761D01*
X149205904Y-103720952D01*
X149205904Y-103797142D01*
X149167809Y-103873333D01*
X149129714Y-103911428D01*
X149053523Y-103949523D01*
X148901142Y-103987619D01*
X148710666Y-103987619D01*
X148558285Y-103949523D01*
X148482095Y-103911428D01*
X148444000Y-103873333D01*
X148405904Y-103797142D01*
X148672571Y-102844761D02*
X149205904Y-102844761D01*
X148367809Y-103035238D02*
X148939238Y-103225714D01*
X148939238Y-102730476D01*
X148901142Y-102425714D02*
X148901142Y-101816190D01*
X148405904Y-101282857D02*
X148405904Y-101206666D01*
X148444000Y-101130476D01*
X148482095Y-101092380D01*
X148558285Y-101054285D01*
X148710666Y-101016190D01*
X148901142Y-101016190D01*
X149053523Y-101054285D01*
X149129714Y-101092380D01*
X149167809Y-101130476D01*
X149205904Y-101206666D01*
X149205904Y-101282857D01*
X149167809Y-101359047D01*
X149129714Y-101397142D01*
X149053523Y-101435238D01*
X148901142Y-101473333D01*
X148710666Y-101473333D01*
X148558285Y-101435238D01*
X148482095Y-101397142D01*
X148444000Y-101359047D01*
X148405904Y-101282857D01*
X148405904Y-100330476D02*
X148405904Y-100482857D01*
X148444000Y-100559047D01*
X148482095Y-100597142D01*
X148596380Y-100673333D01*
X148748761Y-100711428D01*
X149053523Y-100711428D01*
X149129714Y-100673333D01*
X149167809Y-100635238D01*
X149205904Y-100559047D01*
X149205904Y-100406666D01*
X149167809Y-100330476D01*
X149129714Y-100292380D01*
X149053523Y-100254285D01*
X148863047Y-100254285D01*
X148786857Y-100292380D01*
X148748761Y-100330476D01*
X148710666Y-100406666D01*
X148710666Y-100559047D01*
X148748761Y-100635238D01*
X148786857Y-100673333D01*
X148863047Y-100711428D01*
X73539476Y-96805704D02*
X73539476Y-96005704D01*
X73996619Y-96805704D01*
X73996619Y-96005704D01*
X74834714Y-96729514D02*
X74796619Y-96767609D01*
X74682333Y-96805704D01*
X74606142Y-96805704D01*
X74491857Y-96767609D01*
X74415666Y-96691419D01*
X74377571Y-96615228D01*
X74339476Y-96462847D01*
X74339476Y-96348561D01*
X74377571Y-96196180D01*
X74415666Y-96119990D01*
X74491857Y-96043800D01*
X74606142Y-96005704D01*
X74682333Y-96005704D01*
X74796619Y-96043800D01*
X74834714Y-96081895D01*
X75101380Y-96005704D02*
X75596619Y-96005704D01*
X75329952Y-96310466D01*
X75444238Y-96310466D01*
X75520428Y-96348561D01*
X75558523Y-96386657D01*
X75596619Y-96462847D01*
X75596619Y-96653323D01*
X75558523Y-96729514D01*
X75520428Y-96767609D01*
X75444238Y-96805704D01*
X75215666Y-96805704D01*
X75139476Y-96767609D01*
X75101380Y-96729514D01*
X73691876Y-81641904D02*
X73691876Y-80841904D01*
X74149019Y-81641904D01*
X74149019Y-80841904D01*
X74987114Y-81565714D02*
X74949019Y-81603809D01*
X74834733Y-81641904D01*
X74758542Y-81641904D01*
X74644257Y-81603809D01*
X74568066Y-81527619D01*
X74529971Y-81451428D01*
X74491876Y-81299047D01*
X74491876Y-81184761D01*
X74529971Y-81032380D01*
X74568066Y-80956190D01*
X74644257Y-80880000D01*
X74758542Y-80841904D01*
X74834733Y-80841904D01*
X74949019Y-80880000D01*
X74987114Y-80918095D01*
X75672828Y-81108571D02*
X75672828Y-81641904D01*
X75482352Y-80803809D02*
X75291876Y-81375238D01*
X75787114Y-81375238D01*
X130988571Y-109683571D02*
X131140952Y-110216904D01*
X131293333Y-109835952D01*
X131445714Y-110216904D01*
X131598095Y-109683571D01*
X131826666Y-109683571D02*
X131979047Y-110216904D01*
X132131428Y-109835952D01*
X132283809Y-110216904D01*
X132436190Y-109683571D01*
X132664761Y-109683571D02*
X132817142Y-110216904D01*
X132969523Y-109835952D01*
X133121904Y-110216904D01*
X133274285Y-109683571D01*
X133579047Y-110140714D02*
X133617142Y-110178809D01*
X133579047Y-110216904D01*
X133540952Y-110178809D01*
X133579047Y-110140714D01*
X133579047Y-110216904D01*
X134264761Y-110178809D02*
X134188571Y-110216904D01*
X134036190Y-110216904D01*
X133960000Y-110178809D01*
X133921904Y-110102619D01*
X133921904Y-109797857D01*
X133960000Y-109721666D01*
X134036190Y-109683571D01*
X134188571Y-109683571D01*
X134264761Y-109721666D01*
X134302857Y-109797857D01*
X134302857Y-109874047D01*
X133921904Y-109950238D01*
X134645714Y-110216904D02*
X134645714Y-109683571D01*
X134645714Y-109416904D02*
X134607619Y-109455000D01*
X134645714Y-109493095D01*
X134683809Y-109455000D01*
X134645714Y-109416904D01*
X134645714Y-109493095D01*
X134912380Y-109683571D02*
X135217142Y-109683571D01*
X135026666Y-109416904D02*
X135026666Y-110102619D01*
X135064761Y-110178809D01*
X135140952Y-110216904D01*
X135217142Y-110216904D01*
X135483809Y-110140714D02*
X135521904Y-110178809D01*
X135483809Y-110216904D01*
X135445714Y-110178809D01*
X135483809Y-110140714D01*
X135483809Y-110216904D01*
X135826666Y-110178809D02*
X135902857Y-110216904D01*
X136055238Y-110216904D01*
X136131428Y-110178809D01*
X136169523Y-110102619D01*
X136169523Y-110064523D01*
X136131428Y-109988333D01*
X136055238Y-109950238D01*
X135940952Y-109950238D01*
X135864761Y-109912142D01*
X135826666Y-109835952D01*
X135826666Y-109797857D01*
X135864761Y-109721666D01*
X135940952Y-109683571D01*
X136055238Y-109683571D01*
X136131428Y-109721666D01*
X136817142Y-110178809D02*
X136740952Y-110216904D01*
X136588571Y-110216904D01*
X136512380Y-110178809D01*
X136474285Y-110102619D01*
X136474285Y-109797857D01*
X136512380Y-109721666D01*
X136588571Y-109683571D01*
X136740952Y-109683571D01*
X136817142Y-109721666D01*
X136855238Y-109797857D01*
X136855238Y-109874047D01*
X136474285Y-109950238D01*
X137769523Y-109378809D02*
X137083809Y-110407380D01*
X138379047Y-110216904D02*
X138379047Y-109416904D01*
X138379047Y-110178809D02*
X138302857Y-110216904D01*
X138150476Y-110216904D01*
X138074285Y-110178809D01*
X138036190Y-110140714D01*
X137998095Y-110064523D01*
X137998095Y-109835952D01*
X138036190Y-109759761D01*
X138074285Y-109721666D01*
X138150476Y-109683571D01*
X138302857Y-109683571D01*
X138379047Y-109721666D01*
X138760000Y-110216904D02*
X138760000Y-109683571D01*
X138760000Y-109416904D02*
X138721904Y-109455000D01*
X138760000Y-109493095D01*
X138798095Y-109455000D01*
X138760000Y-109416904D01*
X138760000Y-109493095D01*
X139445714Y-110178809D02*
X139369523Y-110216904D01*
X139217142Y-110216904D01*
X139140952Y-110178809D01*
X139102857Y-110102619D01*
X139102857Y-109797857D01*
X139140952Y-109721666D01*
X139217142Y-109683571D01*
X139369523Y-109683571D01*
X139445714Y-109721666D01*
X139483809Y-109797857D01*
X139483809Y-109874047D01*
X139102857Y-109950238D01*
X139940952Y-110216904D02*
X139864761Y-110178809D01*
X139826666Y-110102619D01*
X139826666Y-109416904D01*
X140550476Y-110178809D02*
X140474285Y-110216904D01*
X140321904Y-110216904D01*
X140245714Y-110178809D01*
X140207619Y-110102619D01*
X140207619Y-109797857D01*
X140245714Y-109721666D01*
X140321904Y-109683571D01*
X140474285Y-109683571D01*
X140550476Y-109721666D01*
X140588571Y-109797857D01*
X140588571Y-109874047D01*
X140207619Y-109950238D01*
X141274285Y-110178809D02*
X141198095Y-110216904D01*
X141045714Y-110216904D01*
X140969523Y-110178809D01*
X140931428Y-110140714D01*
X140893333Y-110064523D01*
X140893333Y-109835952D01*
X140931428Y-109759761D01*
X140969523Y-109721666D01*
X141045714Y-109683571D01*
X141198095Y-109683571D01*
X141274285Y-109721666D01*
X141502857Y-109683571D02*
X141807619Y-109683571D01*
X141617142Y-109416904D02*
X141617142Y-110102619D01*
X141655238Y-110178809D01*
X141731428Y-110216904D01*
X141807619Y-110216904D01*
X142074285Y-110216904D02*
X142074285Y-109683571D01*
X142074285Y-109835952D02*
X142112380Y-109759761D01*
X142150476Y-109721666D01*
X142226666Y-109683571D01*
X142302857Y-109683571D01*
X142569523Y-110216904D02*
X142569523Y-109683571D01*
X142569523Y-109416904D02*
X142531428Y-109455000D01*
X142569523Y-109493095D01*
X142607619Y-109455000D01*
X142569523Y-109416904D01*
X142569523Y-109493095D01*
X143293333Y-110178809D02*
X143217142Y-110216904D01*
X143064761Y-110216904D01*
X142988571Y-110178809D01*
X142950476Y-110140714D01*
X142912380Y-110064523D01*
X142912380Y-109835952D01*
X142950476Y-109759761D01*
X142988571Y-109721666D01*
X143064761Y-109683571D01*
X143217142Y-109683571D01*
X143293333Y-109721666D01*
X78823809Y-109581904D02*
X78557142Y-109200952D01*
X78366666Y-109581904D02*
X78366666Y-108781904D01*
X78671428Y-108781904D01*
X78747619Y-108820000D01*
X78785714Y-108858095D01*
X78823809Y-108934285D01*
X78823809Y-109048571D01*
X78785714Y-109124761D01*
X78747619Y-109162857D01*
X78671428Y-109200952D01*
X78366666Y-109200952D01*
X79128571Y-109543809D02*
X79242857Y-109581904D01*
X79433333Y-109581904D01*
X79509523Y-109543809D01*
X79547619Y-109505714D01*
X79585714Y-109429523D01*
X79585714Y-109353333D01*
X79547619Y-109277142D01*
X79509523Y-109239047D01*
X79433333Y-109200952D01*
X79280952Y-109162857D01*
X79204761Y-109124761D01*
X79166666Y-109086666D01*
X79128571Y-109010476D01*
X79128571Y-108934285D01*
X79166666Y-108858095D01*
X79204761Y-108820000D01*
X79280952Y-108781904D01*
X79471428Y-108781904D01*
X79585714Y-108820000D01*
X79928571Y-109277142D02*
X80538095Y-109277142D01*
X80880952Y-108858095D02*
X80919047Y-108820000D01*
X80995238Y-108781904D01*
X81185714Y-108781904D01*
X81261904Y-108820000D01*
X81300000Y-108858095D01*
X81338095Y-108934285D01*
X81338095Y-109010476D01*
X81300000Y-109124761D01*
X80842857Y-109581904D01*
X81338095Y-109581904D01*
X81604761Y-108781904D02*
X82100000Y-108781904D01*
X81833333Y-109086666D01*
X81947619Y-109086666D01*
X82023809Y-109124761D01*
X82061904Y-109162857D01*
X82100000Y-109239047D01*
X82100000Y-109429523D01*
X82061904Y-109505714D01*
X82023809Y-109543809D01*
X81947619Y-109581904D01*
X81719047Y-109581904D01*
X81642857Y-109543809D01*
X81604761Y-109505714D01*
X82404761Y-108858095D02*
X82442857Y-108820000D01*
X82519047Y-108781904D01*
X82709523Y-108781904D01*
X82785714Y-108820000D01*
X82823809Y-108858095D01*
X82861904Y-108934285D01*
X82861904Y-109010476D01*
X82823809Y-109124761D01*
X82366666Y-109581904D01*
X82861904Y-109581904D01*
X83966666Y-108781904D02*
X84119047Y-108781904D01*
X84195238Y-108820000D01*
X84271428Y-108896190D01*
X84309523Y-109048571D01*
X84309523Y-109315238D01*
X84271428Y-109467619D01*
X84195238Y-109543809D01*
X84119047Y-109581904D01*
X83966666Y-109581904D01*
X83890476Y-109543809D01*
X83814285Y-109467619D01*
X83776190Y-109315238D01*
X83776190Y-109048571D01*
X83814285Y-108896190D01*
X83890476Y-108820000D01*
X83966666Y-108781904D01*
X84652380Y-109048571D02*
X84652380Y-109848571D01*
X84652380Y-109086666D02*
X84728571Y-109048571D01*
X84880952Y-109048571D01*
X84957142Y-109086666D01*
X84995238Y-109124761D01*
X85033333Y-109200952D01*
X85033333Y-109429523D01*
X84995238Y-109505714D01*
X84957142Y-109543809D01*
X84880952Y-109581904D01*
X84728571Y-109581904D01*
X84652380Y-109543809D01*
X85261904Y-109048571D02*
X85566666Y-109048571D01*
X85376190Y-108781904D02*
X85376190Y-109467619D01*
X85414285Y-109543809D01*
X85490476Y-109581904D01*
X85566666Y-109581904D01*
X85947619Y-109581904D02*
X85871428Y-109543809D01*
X85833333Y-109505714D01*
X85795238Y-109429523D01*
X85795238Y-109200952D01*
X85833333Y-109124761D01*
X85871428Y-109086666D01*
X85947619Y-109048571D01*
X86061904Y-109048571D01*
X86138095Y-109086666D01*
X86176190Y-109124761D01*
X86214285Y-109200952D01*
X86214285Y-109429523D01*
X86176190Y-109505714D01*
X86138095Y-109543809D01*
X86061904Y-109581904D01*
X85947619Y-109581904D01*
X87509523Y-109581904D02*
X87509523Y-109162857D01*
X87471428Y-109086666D01*
X87395238Y-109048571D01*
X87242857Y-109048571D01*
X87166666Y-109086666D01*
X87509523Y-109543809D02*
X87433333Y-109581904D01*
X87242857Y-109581904D01*
X87166666Y-109543809D01*
X87128571Y-109467619D01*
X87128571Y-109391428D01*
X87166666Y-109315238D01*
X87242857Y-109277142D01*
X87433333Y-109277142D01*
X87509523Y-109239047D01*
X88233333Y-109581904D02*
X88233333Y-108781904D01*
X88233333Y-109543809D02*
X88157142Y-109581904D01*
X88004761Y-109581904D01*
X87928571Y-109543809D01*
X87890476Y-109505714D01*
X87852380Y-109429523D01*
X87852380Y-109200952D01*
X87890476Y-109124761D01*
X87928571Y-109086666D01*
X88004761Y-109048571D01*
X88157142Y-109048571D01*
X88233333Y-109086666D01*
X88957142Y-109581904D02*
X88957142Y-109162857D01*
X88919047Y-109086666D01*
X88842857Y-109048571D01*
X88690476Y-109048571D01*
X88614285Y-109086666D01*
X88957142Y-109543809D02*
X88880952Y-109581904D01*
X88690476Y-109581904D01*
X88614285Y-109543809D01*
X88576190Y-109467619D01*
X88576190Y-109391428D01*
X88614285Y-109315238D01*
X88690476Y-109277142D01*
X88880952Y-109277142D01*
X88957142Y-109239047D01*
X89338095Y-109048571D02*
X89338095Y-109848571D01*
X89338095Y-109086666D02*
X89414285Y-109048571D01*
X89566666Y-109048571D01*
X89642857Y-109086666D01*
X89680952Y-109124761D01*
X89719047Y-109200952D01*
X89719047Y-109429523D01*
X89680952Y-109505714D01*
X89642857Y-109543809D01*
X89566666Y-109581904D01*
X89414285Y-109581904D01*
X89338095Y-109543809D01*
X89947619Y-109048571D02*
X90252380Y-109048571D01*
X90061904Y-108781904D02*
X90061904Y-109467619D01*
X90100000Y-109543809D01*
X90176190Y-109581904D01*
X90252380Y-109581904D01*
X90823809Y-109543809D02*
X90747619Y-109581904D01*
X90595238Y-109581904D01*
X90519047Y-109543809D01*
X90480952Y-109467619D01*
X90480952Y-109162857D01*
X90519047Y-109086666D01*
X90595238Y-109048571D01*
X90747619Y-109048571D01*
X90823809Y-109086666D01*
X90861904Y-109162857D01*
X90861904Y-109239047D01*
X90480952Y-109315238D01*
X91204761Y-109581904D02*
X91204761Y-109048571D01*
X91204761Y-109200952D02*
X91242857Y-109124761D01*
X91280952Y-109086666D01*
X91357142Y-109048571D01*
X91433333Y-109048571D01*
X92309523Y-109048571D02*
X92309523Y-109581904D01*
X92309523Y-109124761D02*
X92347619Y-109086666D01*
X92423809Y-109048571D01*
X92538095Y-109048571D01*
X92614285Y-109086666D01*
X92652380Y-109162857D01*
X92652380Y-109581904D01*
X93376190Y-109048571D02*
X93376190Y-109581904D01*
X93033333Y-109048571D02*
X93033333Y-109467619D01*
X93071428Y-109543809D01*
X93147619Y-109581904D01*
X93261904Y-109581904D01*
X93338095Y-109543809D01*
X93376190Y-109505714D01*
X94100000Y-109543809D02*
X94023809Y-109581904D01*
X93871428Y-109581904D01*
X93795238Y-109543809D01*
X93757142Y-109505714D01*
X93719047Y-109429523D01*
X93719047Y-109200952D01*
X93757142Y-109124761D01*
X93795238Y-109086666D01*
X93871428Y-109048571D01*
X94023809Y-109048571D01*
X94100000Y-109086666D01*
X94557142Y-109581904D02*
X94480952Y-109543809D01*
X94442857Y-109467619D01*
X94442857Y-108781904D01*
X95166666Y-109543809D02*
X95090476Y-109581904D01*
X94938095Y-109581904D01*
X94861904Y-109543809D01*
X94823809Y-109467619D01*
X94823809Y-109162857D01*
X94861904Y-109086666D01*
X94938095Y-109048571D01*
X95090476Y-109048571D01*
X95166666Y-109086666D01*
X95204761Y-109162857D01*
X95204761Y-109239047D01*
X94823809Y-109315238D01*
X95661904Y-109581904D02*
X95585714Y-109543809D01*
X95547619Y-109505714D01*
X95509523Y-109429523D01*
X95509523Y-109200952D01*
X95547619Y-109124761D01*
X95585714Y-109086666D01*
X95661904Y-109048571D01*
X95776190Y-109048571D01*
X95852380Y-109086666D01*
X95890476Y-109124761D01*
X95928571Y-109200952D01*
X95928571Y-109429523D01*
X95890476Y-109505714D01*
X95852380Y-109543809D01*
X95776190Y-109581904D01*
X95661904Y-109581904D01*
X96766666Y-109048571D02*
X97071428Y-109048571D01*
X96880952Y-108781904D02*
X96880952Y-109467619D01*
X96919047Y-109543809D01*
X96995238Y-109581904D01*
X97071428Y-109581904D01*
X97642857Y-109543809D02*
X97566666Y-109581904D01*
X97414285Y-109581904D01*
X97338095Y-109543809D01*
X97300000Y-109467619D01*
X97300000Y-109162857D01*
X97338095Y-109086666D01*
X97414285Y-109048571D01*
X97566666Y-109048571D01*
X97642857Y-109086666D01*
X97680952Y-109162857D01*
X97680952Y-109239047D01*
X97300000Y-109315238D01*
X98023809Y-109581904D02*
X98023809Y-109048571D01*
X98023809Y-109124761D02*
X98061904Y-109086666D01*
X98138095Y-109048571D01*
X98252380Y-109048571D01*
X98328571Y-109086666D01*
X98366666Y-109162857D01*
X98366666Y-109581904D01*
X98366666Y-109162857D02*
X98404761Y-109086666D01*
X98480952Y-109048571D01*
X98595238Y-109048571D01*
X98671428Y-109086666D01*
X98709523Y-109162857D01*
X98709523Y-109581904D01*
X99090476Y-109048571D02*
X99090476Y-109848571D01*
X99090476Y-109086666D02*
X99166666Y-109048571D01*
X99319047Y-109048571D01*
X99395238Y-109086666D01*
X99433333Y-109124761D01*
X99471428Y-109200952D01*
X99471428Y-109429523D01*
X99433333Y-109505714D01*
X99395238Y-109543809D01*
X99319047Y-109581904D01*
X99166666Y-109581904D01*
X99090476Y-109543809D01*
D11*
X158750000Y-88900000D02*
X69850000Y-88900000D01*
X114300000Y-109855000D02*
X114300000Y-68580000D01*
D10*
X108757142Y-107585714D02*
X108719047Y-107623809D01*
X108604761Y-107661904D01*
X108528571Y-107661904D01*
X108414285Y-107623809D01*
X108338095Y-107547619D01*
X108300000Y-107471428D01*
X108261904Y-107319047D01*
X108261904Y-107204761D01*
X108300000Y-107052380D01*
X108338095Y-106976190D01*
X108414285Y-106900000D01*
X108528571Y-106861904D01*
X108604761Y-106861904D01*
X108719047Y-106900000D01*
X108757142Y-106938095D01*
X109214285Y-107661904D02*
X109138095Y-107623809D01*
X109100000Y-107585714D01*
X109061904Y-107509523D01*
X109061904Y-107280952D01*
X109100000Y-107204761D01*
X109138095Y-107166666D01*
X109214285Y-107128571D01*
X109328571Y-107128571D01*
X109404761Y-107166666D01*
X109442857Y-107204761D01*
X109480952Y-107280952D01*
X109480952Y-107509523D01*
X109442857Y-107585714D01*
X109404761Y-107623809D01*
X109328571Y-107661904D01*
X109214285Y-107661904D01*
X109823809Y-107128571D02*
X109823809Y-107928571D01*
X109823809Y-107166666D02*
X109900000Y-107128571D01*
X110052380Y-107128571D01*
X110128571Y-107166666D01*
X110166666Y-107204761D01*
X110204761Y-107280952D01*
X110204761Y-107509523D01*
X110166666Y-107585714D01*
X110128571Y-107623809D01*
X110052380Y-107661904D01*
X109900000Y-107661904D01*
X109823809Y-107623809D01*
X110471428Y-107128571D02*
X110661904Y-107661904D01*
X110852380Y-107128571D02*
X110661904Y-107661904D01*
X110585714Y-107852380D01*
X110547619Y-107890476D01*
X110471428Y-107928571D01*
X111157142Y-107661904D02*
X111157142Y-107128571D01*
X111157142Y-107280952D02*
X111195238Y-107204761D01*
X111233333Y-107166666D01*
X111309523Y-107128571D01*
X111385714Y-107128571D01*
X111652380Y-107661904D02*
X111652380Y-107128571D01*
X111652380Y-106861904D02*
X111614285Y-106900000D01*
X111652380Y-106938095D01*
X111690476Y-106900000D01*
X111652380Y-106861904D01*
X111652380Y-106938095D01*
X112376190Y-107128571D02*
X112376190Y-107776190D01*
X112338095Y-107852380D01*
X112300000Y-107890476D01*
X112223809Y-107928571D01*
X112109523Y-107928571D01*
X112033333Y-107890476D01*
X112376190Y-107623809D02*
X112300000Y-107661904D01*
X112147619Y-107661904D01*
X112071428Y-107623809D01*
X112033333Y-107585714D01*
X111995238Y-107509523D01*
X111995238Y-107280952D01*
X112033333Y-107204761D01*
X112071428Y-107166666D01*
X112147619Y-107128571D01*
X112300000Y-107128571D01*
X112376190Y-107166666D01*
X112757142Y-107661904D02*
X112757142Y-106861904D01*
X113100000Y-107661904D02*
X113100000Y-107242857D01*
X113061904Y-107166666D01*
X112985714Y-107128571D01*
X112871428Y-107128571D01*
X112795238Y-107166666D01*
X112757142Y-107204761D01*
X113366666Y-107128571D02*
X113671428Y-107128571D01*
X113480952Y-106861904D02*
X113480952Y-107547619D01*
X113519047Y-107623809D01*
X113595238Y-107661904D01*
X113671428Y-107661904D01*
X114776190Y-107966666D02*
X114738095Y-107928571D01*
X114661904Y-107814285D01*
X114623809Y-107738095D01*
X114585714Y-107623809D01*
X114547619Y-107433333D01*
X114547619Y-107280952D01*
X114585714Y-107090476D01*
X114623809Y-106976190D01*
X114661904Y-106900000D01*
X114738095Y-106785714D01*
X114776190Y-106747619D01*
X115538095Y-107585714D02*
X115500000Y-107623809D01*
X115385714Y-107661904D01*
X115309523Y-107661904D01*
X115195238Y-107623809D01*
X115119047Y-107547619D01*
X115080952Y-107471428D01*
X115042857Y-107319047D01*
X115042857Y-107204761D01*
X115080952Y-107052380D01*
X115119047Y-106976190D01*
X115195238Y-106900000D01*
X115309523Y-106861904D01*
X115385714Y-106861904D01*
X115500000Y-106900000D01*
X115538095Y-106938095D01*
X115804761Y-107966666D02*
X115842857Y-107928571D01*
X115919047Y-107814285D01*
X115957142Y-107738095D01*
X115995238Y-107623809D01*
X116033333Y-107433333D01*
X116033333Y-107280952D01*
X115995238Y-107090476D01*
X115957142Y-106976190D01*
X115919047Y-106900000D01*
X115842857Y-106785714D01*
X115804761Y-106747619D01*
X116985714Y-106938095D02*
X117023809Y-106900000D01*
X117100000Y-106861904D01*
X117290476Y-106861904D01*
X117366666Y-106900000D01*
X117404761Y-106938095D01*
X117442857Y-107014285D01*
X117442857Y-107090476D01*
X117404761Y-107204761D01*
X116947619Y-107661904D01*
X117442857Y-107661904D01*
X117938095Y-106861904D02*
X118014285Y-106861904D01*
X118090476Y-106900000D01*
X118128571Y-106938095D01*
X118166666Y-107014285D01*
X118204761Y-107166666D01*
X118204761Y-107357142D01*
X118166666Y-107509523D01*
X118128571Y-107585714D01*
X118090476Y-107623809D01*
X118014285Y-107661904D01*
X117938095Y-107661904D01*
X117861904Y-107623809D01*
X117823809Y-107585714D01*
X117785714Y-107509523D01*
X117747619Y-107357142D01*
X117747619Y-107166666D01*
X117785714Y-107014285D01*
X117823809Y-106938095D01*
X117861904Y-106900000D01*
X117938095Y-106861904D01*
X118509523Y-106938095D02*
X118547619Y-106900000D01*
X118623809Y-106861904D01*
X118814285Y-106861904D01*
X118890476Y-106900000D01*
X118928571Y-106938095D01*
X118966666Y-107014285D01*
X118966666Y-107090476D01*
X118928571Y-107204761D01*
X118471428Y-107661904D01*
X118966666Y-107661904D01*
X119461904Y-106861904D02*
X119538095Y-106861904D01*
X119614285Y-106900000D01*
X119652380Y-106938095D01*
X119690476Y-107014285D01*
X119728571Y-107166666D01*
X119728571Y-107357142D01*
X119690476Y-107509523D01*
X119652380Y-107585714D01*
X119614285Y-107623809D01*
X119538095Y-107661904D01*
X119461904Y-107661904D01*
X119385714Y-107623809D01*
X119347619Y-107585714D01*
X119309523Y-107509523D01*
X119271428Y-107357142D01*
X119271428Y-107166666D01*
X119309523Y-107014285D01*
X119347619Y-106938095D01*
X119385714Y-106900000D01*
X119461904Y-106861904D01*
X105004761Y-108961904D02*
X105004761Y-108161904D01*
X105004761Y-108542857D02*
X105461904Y-108542857D01*
X105461904Y-108961904D02*
X105461904Y-108161904D01*
X106147619Y-108923809D02*
X106071428Y-108961904D01*
X105919047Y-108961904D01*
X105842857Y-108923809D01*
X105804761Y-108847619D01*
X105804761Y-108542857D01*
X105842857Y-108466666D01*
X105919047Y-108428571D01*
X106071428Y-108428571D01*
X106147619Y-108466666D01*
X106185714Y-108542857D01*
X106185714Y-108619047D01*
X105804761Y-108695238D01*
X106528571Y-108428571D02*
X106528571Y-108961904D01*
X106528571Y-108504761D02*
X106566666Y-108466666D01*
X106642857Y-108428571D01*
X106757142Y-108428571D01*
X106833333Y-108466666D01*
X106871428Y-108542857D01*
X106871428Y-108961904D01*
X107252380Y-108961904D02*
X107252380Y-108428571D01*
X107252380Y-108580952D02*
X107290476Y-108504761D01*
X107328571Y-108466666D01*
X107404761Y-108428571D01*
X107480952Y-108428571D01*
X107747619Y-108961904D02*
X107747619Y-108428571D01*
X107747619Y-108161904D02*
X107709523Y-108200000D01*
X107747619Y-108238095D01*
X107785714Y-108200000D01*
X107747619Y-108161904D01*
X107747619Y-108238095D01*
X108128571Y-108961904D02*
X108128571Y-108161904D01*
X108204761Y-108657142D02*
X108433333Y-108961904D01*
X108433333Y-108428571D02*
X108128571Y-108733333D01*
X109652380Y-108542857D02*
X109766666Y-108580952D01*
X109804761Y-108619047D01*
X109842857Y-108695238D01*
X109842857Y-108809523D01*
X109804761Y-108885714D01*
X109766666Y-108923809D01*
X109690476Y-108961904D01*
X109385714Y-108961904D01*
X109385714Y-108161904D01*
X109652380Y-108161904D01*
X109728571Y-108200000D01*
X109766666Y-108238095D01*
X109804761Y-108314285D01*
X109804761Y-108390476D01*
X109766666Y-108466666D01*
X109728571Y-108504761D01*
X109652380Y-108542857D01*
X109385714Y-108542857D01*
X110185714Y-108428571D02*
X110185714Y-109114285D01*
X110147619Y-109190476D01*
X110071428Y-109228571D01*
X110033333Y-109228571D01*
X110185714Y-108161904D02*
X110147619Y-108200000D01*
X110185714Y-108238095D01*
X110223809Y-108200000D01*
X110185714Y-108161904D01*
X110185714Y-108238095D01*
X110680952Y-108961904D02*
X110604761Y-108923809D01*
X110566666Y-108885714D01*
X110528571Y-108809523D01*
X110528571Y-108580952D01*
X110566666Y-108504761D01*
X110604761Y-108466666D01*
X110680952Y-108428571D01*
X110795238Y-108428571D01*
X110871428Y-108466666D01*
X110909523Y-108504761D01*
X110947619Y-108580952D01*
X110947619Y-108809523D01*
X110909523Y-108885714D01*
X110871428Y-108923809D01*
X110795238Y-108961904D01*
X110680952Y-108961904D01*
X110604761Y-108161904D02*
X110642857Y-108200000D01*
X110604761Y-108238095D01*
X110566666Y-108200000D01*
X110604761Y-108161904D01*
X110604761Y-108238095D01*
X110909523Y-108161904D02*
X110947619Y-108200000D01*
X110909523Y-108238095D01*
X110871428Y-108200000D01*
X110909523Y-108161904D01*
X110909523Y-108238095D01*
X111290476Y-108961904D02*
X111290476Y-108428571D01*
X111290476Y-108580952D02*
X111328571Y-108504761D01*
X111366666Y-108466666D01*
X111442857Y-108428571D01*
X111519047Y-108428571D01*
X111785714Y-108961904D02*
X111785714Y-108161904D01*
X111861904Y-108657142D02*
X112090476Y-108961904D01*
X112090476Y-108428571D02*
X111785714Y-108733333D01*
X112433333Y-108961904D02*
X112433333Y-108428571D01*
X112433333Y-108504761D02*
X112471428Y-108466666D01*
X112547619Y-108428571D01*
X112661904Y-108428571D01*
X112738095Y-108466666D01*
X112776190Y-108542857D01*
X112776190Y-108961904D01*
X112776190Y-108542857D02*
X112814285Y-108466666D01*
X112890476Y-108428571D01*
X113004761Y-108428571D01*
X113080952Y-108466666D01*
X113119047Y-108542857D01*
X113119047Y-108961904D01*
X113842857Y-108961904D02*
X113842857Y-108542857D01*
X113804761Y-108466666D01*
X113728571Y-108428571D01*
X113576190Y-108428571D01*
X113500000Y-108466666D01*
X113842857Y-108923809D02*
X113766666Y-108961904D01*
X113576190Y-108961904D01*
X113500000Y-108923809D01*
X113461904Y-108847619D01*
X113461904Y-108771428D01*
X113500000Y-108695238D01*
X113576190Y-108657142D01*
X113766666Y-108657142D01*
X113842857Y-108619047D01*
X114223809Y-108428571D02*
X114223809Y-108961904D01*
X114223809Y-108504761D02*
X114261904Y-108466666D01*
X114338095Y-108428571D01*
X114452380Y-108428571D01*
X114528571Y-108466666D01*
X114566666Y-108542857D01*
X114566666Y-108961904D01*
X115480952Y-108428571D02*
X115633333Y-108961904D01*
X115785714Y-108580952D01*
X115938095Y-108961904D01*
X116090476Y-108428571D01*
X116319047Y-108428571D02*
X116471428Y-108961904D01*
X116623809Y-108580952D01*
X116776190Y-108961904D01*
X116928571Y-108428571D01*
X117157142Y-108428571D02*
X117309523Y-108961904D01*
X117461904Y-108580952D01*
X117614285Y-108961904D01*
X117766666Y-108428571D01*
X118071428Y-108885714D02*
X118109523Y-108923809D01*
X118071428Y-108961904D01*
X118033333Y-108923809D01*
X118071428Y-108885714D01*
X118071428Y-108961904D01*
X118757142Y-108923809D02*
X118680952Y-108961904D01*
X118528571Y-108961904D01*
X118452380Y-108923809D01*
X118414285Y-108847619D01*
X118414285Y-108542857D01*
X118452380Y-108466666D01*
X118528571Y-108428571D01*
X118680952Y-108428571D01*
X118757142Y-108466666D01*
X118795238Y-108542857D01*
X118795238Y-108619047D01*
X118414285Y-108695238D01*
X119138095Y-108961904D02*
X119138095Y-108428571D01*
X119138095Y-108161904D02*
X119100000Y-108200000D01*
X119138095Y-108238095D01*
X119176190Y-108200000D01*
X119138095Y-108161904D01*
X119138095Y-108238095D01*
X119404761Y-108428571D02*
X119709523Y-108428571D01*
X119519047Y-108161904D02*
X119519047Y-108847619D01*
X119557142Y-108923809D01*
X119633333Y-108961904D01*
X119709523Y-108961904D01*
X119976190Y-108885714D02*
X120014285Y-108923809D01*
X119976190Y-108961904D01*
X119938095Y-108923809D01*
X119976190Y-108885714D01*
X119976190Y-108961904D01*
X120319047Y-108923809D02*
X120395238Y-108961904D01*
X120547619Y-108961904D01*
X120623809Y-108923809D01*
X120661904Y-108847619D01*
X120661904Y-108809523D01*
X120623809Y-108733333D01*
X120547619Y-108695238D01*
X120433333Y-108695238D01*
X120357142Y-108657142D01*
X120319047Y-108580952D01*
X120319047Y-108542857D01*
X120357142Y-108466666D01*
X120433333Y-108428571D01*
X120547619Y-108428571D01*
X120623809Y-108466666D01*
X121309523Y-108923809D02*
X121233333Y-108961904D01*
X121080952Y-108961904D01*
X121004761Y-108923809D01*
X120966666Y-108847619D01*
X120966666Y-108542857D01*
X121004761Y-108466666D01*
X121080952Y-108428571D01*
X121233333Y-108428571D01*
X121309523Y-108466666D01*
X121347619Y-108542857D01*
X121347619Y-108619047D01*
X120966666Y-108695238D01*
X122261904Y-108123809D02*
X121576190Y-109152380D01*
X122528571Y-108961904D02*
X122528571Y-108161904D01*
X122871428Y-108961904D02*
X122871428Y-108542857D01*
X122833333Y-108466666D01*
X122757142Y-108428571D01*
X122642857Y-108428571D01*
X122566666Y-108466666D01*
X122528571Y-108504761D01*
X123252380Y-108961904D02*
X123252380Y-108161904D01*
X123252380Y-108466666D02*
X123328571Y-108428571D01*
X123480952Y-108428571D01*
X123557142Y-108466666D01*
X123595238Y-108504761D01*
X123633333Y-108580952D01*
X123633333Y-108809523D01*
X123595238Y-108885714D01*
X123557142Y-108923809D01*
X123480952Y-108961904D01*
X123328571Y-108961904D01*
X123252380Y-108923809D01*
D12*
X102469780Y-70994425D02*
G75*
G02X100698400Y-70885928I-971380J-1344775D01*
G01*
X98380380Y-70994425D02*
G75*
G02X96609000Y-70885928I-971380J-1344775D01*
G01*
X136371000Y-99600000D02*
X133631000Y-99600000D01*
X133631000Y-99600000D02*
X133631000Y-106140000D01*
X133631000Y-106140000D02*
X136371000Y-106140000D01*
X136371000Y-106140000D02*
X136371000Y-99600000D01*
X135001000Y-98830000D02*
X135001000Y-99600000D01*
X135001000Y-106910000D02*
X135001000Y-106140000D01*
X98815000Y-112080000D02*
X98815000Y-99740000D01*
X98815000Y-99740000D02*
X129785000Y-99740000D01*
X129785000Y-99740000D02*
X129785000Y-112080000D01*
X108510000Y-98845662D02*
X109010000Y-98845662D01*
X109010000Y-98845662D02*
X108760000Y-99278675D01*
X108760000Y-99278675D02*
X108510000Y-98845662D01*
X139723000Y-75978000D02*
X139723000Y-80018000D01*
X136883000Y-75978000D02*
X136883000Y-80018000D01*
X139723000Y-75978000D02*
X139098000Y-75978000D01*
X137508000Y-75978000D02*
X136883000Y-75978000D01*
X139723000Y-80018000D02*
X139098000Y-80018000D01*
X137508000Y-80018000D02*
X136883000Y-80018000D01*
X97553400Y-75694400D02*
X101593400Y-75694400D01*
X97553400Y-78534400D02*
X101593400Y-78534400D01*
X97553400Y-75694400D02*
X97553400Y-76319400D01*
X97553400Y-77909400D02*
X97553400Y-78534400D01*
X101593400Y-75694400D02*
X101593400Y-76319400D01*
X101593400Y-77909400D02*
X101593400Y-78534400D01*
X78885000Y-75040000D02*
X84905000Y-75040000D01*
X84905000Y-75040000D02*
X84905000Y-69740000D01*
X84905000Y-69740000D02*
X78885000Y-69740000D01*
X78885000Y-69740000D02*
X78885000Y-75040000D01*
X79915000Y-75330000D02*
X83915000Y-75330000D01*
X84905000Y-73660000D02*
X83905000Y-73660000D01*
X83905000Y-73660000D02*
X83905000Y-71120000D01*
X83905000Y-71120000D02*
X84905000Y-71120000D01*
X83905000Y-73660000D02*
X83375000Y-73410000D01*
X83375000Y-73410000D02*
X83375000Y-71370000D01*
X83375000Y-71370000D02*
X83905000Y-71120000D01*
X84905000Y-73410000D02*
X83905000Y-73410000D01*
X84905000Y-71370000D02*
X83905000Y-71370000D01*
X78885000Y-74460000D02*
X79485000Y-74460000D01*
X79485000Y-74460000D02*
X79485000Y-72860000D01*
X79485000Y-72860000D02*
X78885000Y-72860000D01*
X78885000Y-71920000D02*
X79485000Y-71920000D01*
X79485000Y-71920000D02*
X79485000Y-70320000D01*
X79485000Y-70320000D02*
X78885000Y-70320000D01*
X87400000Y-77465000D02*
X89170000Y-77465000D01*
X87400000Y-68865000D02*
X87400000Y-77465000D01*
X92940000Y-68865000D02*
X87400000Y-68865000D01*
X92940000Y-77465000D02*
X92940000Y-68865000D01*
X91170000Y-77465000D02*
X92940000Y-77465000D01*
X89170000Y-77465000D02*
G75*
G02X91170000Y-77465000I1000000J0D01*
G01*
X115680000Y-75420000D02*
X115680000Y-69400000D01*
X115680000Y-69400000D02*
X107840000Y-69400000D01*
X107840000Y-69400000D02*
X107840000Y-75420000D01*
X107840000Y-75420000D02*
X115680000Y-75420000D01*
X115970000Y-74390000D02*
X115970000Y-70390000D01*
X114300000Y-69400000D02*
X114300000Y-70400000D01*
X114300000Y-70400000D02*
X109220000Y-70400000D01*
X109220000Y-70400000D02*
X109220000Y-69400000D01*
X114300000Y-70400000D02*
X114050000Y-70930000D01*
X114050000Y-70930000D02*
X109470000Y-70930000D01*
X109470000Y-70930000D02*
X109220000Y-70400000D01*
X114050000Y-69400000D02*
X114050000Y-70400000D01*
X109470000Y-69400000D02*
X109470000Y-70400000D01*
X115100000Y-75420000D02*
X115100000Y-74820000D01*
X115100000Y-74820000D02*
X113500000Y-74820000D01*
X113500000Y-74820000D02*
X113500000Y-75420000D01*
X112560000Y-75420000D02*
X112560000Y-74820000D01*
X112560000Y-74820000D02*
X110960000Y-74820000D01*
X110960000Y-74820000D02*
X110960000Y-75420000D01*
X110020000Y-75420000D02*
X110020000Y-74820000D01*
X110020000Y-74820000D02*
X108420000Y-74820000D01*
X108420000Y-74820000D02*
X108420000Y-75420000D01*
X105384600Y-75287200D02*
X105384600Y-75217200D01*
X106754600Y-76657200D02*
G75*
G03X106754600Y-76657200I-1370000J0D01*
G01*
X135990000Y-69850000D02*
G75*
G03X135990000Y-69850000I-1370000J0D01*
G01*
X134620000Y-71220000D02*
X134620000Y-71290000D01*
X130015000Y-73120000D02*
X129390000Y-73120000D01*
X132230000Y-73120000D02*
X131605000Y-73120000D01*
X130015000Y-69080000D02*
X129390000Y-69080000D01*
X132230000Y-69080000D02*
X131605000Y-69080000D01*
X129390000Y-69080000D02*
X129390000Y-73120000D01*
X132230000Y-69080000D02*
X132230000Y-73120000D01*
X106830000Y-68445000D02*
X106830000Y-72485000D01*
X103990000Y-68445000D02*
X103990000Y-72485000D01*
X106830000Y-68445000D02*
X106205000Y-68445000D01*
X104615000Y-68445000D02*
X103990000Y-68445000D01*
X106830000Y-72485000D02*
X106205000Y-72485000D01*
X104615000Y-72485000D02*
X103990000Y-72485000D01*
D13*
X68195000Y-97790000D02*
X118995000Y-97790000D01*
X118995000Y-97790000D02*
X118995000Y-80010000D01*
X118995000Y-80010000D02*
X68195000Y-80010000D01*
X68195000Y-80010000D02*
X68195000Y-97790000D01*
X66925000Y-92710000D02*
X69465000Y-92710000D01*
X69465000Y-92710000D02*
X69465000Y-85090000D01*
X69465000Y-85090000D02*
X66925000Y-85090000D01*
X66925000Y-85090000D02*
X66925000Y-92710000D01*
X148202000Y-77978000D02*
X148202000Y-87122000D01*
X148202000Y-87122000D02*
X160140000Y-87122000D01*
X160140000Y-87122000D02*
X160140000Y-85090000D01*
X160140000Y-85090000D02*
X167760000Y-85090000D01*
X167760000Y-85090000D02*
X167760000Y-80010000D01*
X167760000Y-80010000D02*
X160140000Y-80010000D01*
X160140000Y-80010000D02*
X160140000Y-77978000D01*
X160140000Y-77978000D02*
X148202000Y-77978000D01*
D12*
X116040000Y-74820000D02*
X116040000Y-75420000D01*
X117640000Y-74820000D02*
X116040000Y-74820000D01*
X117640000Y-75420000D02*
X117640000Y-74820000D01*
X118580000Y-74820000D02*
X118580000Y-75420000D01*
X120180000Y-74820000D02*
X118580000Y-74820000D01*
X120180000Y-75420000D02*
X120180000Y-74820000D01*
X121120000Y-74820000D02*
X121120000Y-75420000D01*
X122720000Y-74820000D02*
X121120000Y-74820000D01*
X122720000Y-75420000D02*
X122720000Y-74820000D01*
X117090000Y-69400000D02*
X117090000Y-70400000D01*
X121670000Y-69400000D02*
X121670000Y-70400000D01*
X117090000Y-70930000D02*
X116840000Y-70400000D01*
X121670000Y-70930000D02*
X117090000Y-70930000D01*
X121920000Y-70400000D02*
X121670000Y-70930000D01*
X116840000Y-70400000D02*
X116840000Y-69400000D01*
X121920000Y-70400000D02*
X116840000Y-70400000D01*
X121920000Y-69400000D02*
X121920000Y-70400000D01*
X123590000Y-74390000D02*
X123590000Y-70390000D01*
X115460000Y-75420000D02*
X123300000Y-75420000D01*
X115460000Y-69400000D02*
X115460000Y-75420000D01*
X123300000Y-69400000D02*
X115460000Y-69400000D01*
X123300000Y-75420000D02*
X123300000Y-69400000D01*
X94780000Y-101710000D02*
X94780000Y-101110000D01*
X93180000Y-101710000D02*
X94780000Y-101710000D01*
X93180000Y-101110000D02*
X93180000Y-101710000D01*
X92240000Y-101710000D02*
X92240000Y-101110000D01*
X90640000Y-101710000D02*
X92240000Y-101710000D01*
X90640000Y-101110000D02*
X90640000Y-101710000D01*
X89700000Y-101710000D02*
X89700000Y-101110000D01*
X88100000Y-101710000D02*
X89700000Y-101710000D01*
X88100000Y-101110000D02*
X88100000Y-101710000D01*
X93730000Y-107130000D02*
X93730000Y-106130000D01*
X89150000Y-107130000D02*
X89150000Y-106130000D01*
X93730000Y-105600000D02*
X93980000Y-106130000D01*
X89150000Y-105600000D02*
X93730000Y-105600000D01*
X88900000Y-106130000D02*
X89150000Y-105600000D01*
X93980000Y-106130000D02*
X93980000Y-107130000D01*
X88900000Y-106130000D02*
X93980000Y-106130000D01*
X88900000Y-107130000D02*
X88900000Y-106130000D01*
X87230000Y-102140000D02*
X87230000Y-106140000D01*
X95360000Y-101110000D02*
X87520000Y-101110000D01*
X95360000Y-107130000D02*
X95360000Y-101110000D01*
X87520000Y-107130000D02*
X95360000Y-107130000D01*
X87520000Y-101110000D02*
X87520000Y-107130000D01*
X79900000Y-101110000D02*
X79900000Y-107130000D01*
X79900000Y-107130000D02*
X87740000Y-107130000D01*
X87740000Y-107130000D02*
X87740000Y-101110000D01*
X87740000Y-101110000D02*
X79900000Y-101110000D01*
X79610000Y-102140000D02*
X79610000Y-106140000D01*
X81280000Y-107130000D02*
X81280000Y-106130000D01*
X81280000Y-106130000D02*
X86360000Y-106130000D01*
X86360000Y-106130000D02*
X86360000Y-107130000D01*
X81280000Y-106130000D02*
X81530000Y-105600000D01*
X81530000Y-105600000D02*
X86110000Y-105600000D01*
X86110000Y-105600000D02*
X86360000Y-106130000D01*
X81530000Y-107130000D02*
X81530000Y-106130000D01*
X86110000Y-107130000D02*
X86110000Y-106130000D01*
X80480000Y-101110000D02*
X80480000Y-101710000D01*
X80480000Y-101710000D02*
X82080000Y-101710000D01*
X82080000Y-101710000D02*
X82080000Y-101110000D01*
X83020000Y-101110000D02*
X83020000Y-101710000D01*
X83020000Y-101710000D02*
X84620000Y-101710000D01*
X84620000Y-101710000D02*
X84620000Y-101110000D01*
X85560000Y-101110000D02*
X85560000Y-101710000D01*
X85560000Y-101710000D02*
X87160000Y-101710000D01*
X87160000Y-101710000D02*
X87160000Y-101110000D01*
X123340000Y-93210000D02*
X123340000Y-97250000D01*
X120500000Y-93210000D02*
X120500000Y-97250000D01*
X123340000Y-93210000D02*
X122715000Y-93210000D01*
X121125000Y-93210000D02*
X120500000Y-93210000D01*
X123340000Y-97250000D02*
X122715000Y-97250000D01*
X121125000Y-97250000D02*
X120500000Y-97250000D01*
X143990635Y-100076000D02*
G75*
G03X143990635Y-100076000I-1750635J0D01*
G01*
X143990635Y-100076000D02*
X144650000Y-100076000D01*
X147800635Y-75565000D02*
G75*
G03X147800635Y-75565000I-1750635J0D01*
G01*
X146050000Y-77315635D02*
X146050000Y-77975000D01*
X143107665Y-106996608D02*
G75*
G03X146340000Y-107153516I1672335J1078608D01*
G01*
X143107665Y-104839392D02*
G75*
G02X146340000Y-104682484I1672335J-1078608D01*
G01*
X143738870Y-106997837D02*
G75*
G03X145820961Y-106998000I1041130J1079837D01*
G01*
X143738870Y-104838163D02*
G75*
G02X145820961Y-104838000I1041130J-1079837D01*
G01*
X146340000Y-107154000D02*
X146340000Y-106998000D01*
X146340000Y-104838000D02*
X146340000Y-104682000D01*
X144490000Y-72200000D02*
X144490000Y-72356000D01*
X144490000Y-69884000D02*
X144490000Y-70040000D01*
X147091130Y-72199837D02*
G75*
G02X145009039Y-72200000I-1041130J1079837D01*
G01*
X147091130Y-70040163D02*
G75*
G03X145009039Y-70040000I-1041130J-1079837D01*
G01*
X147722335Y-72198608D02*
G75*
G02X144490000Y-72355516I-1672335J1078608D01*
G01*
X147722335Y-70041392D02*
G75*
G03X144490000Y-69884484I-1672335J-1078608D01*
G01*
X139410000Y-72200000D02*
X139410000Y-72356000D01*
X139410000Y-69884000D02*
X139410000Y-70040000D01*
X142011130Y-72199837D02*
G75*
G02X139929039Y-72200000I-1041130J1079837D01*
G01*
X142011130Y-70040163D02*
G75*
G03X139929039Y-70040000I-1041130J-1079837D01*
G01*
X142642335Y-72198608D02*
G75*
G02X139410000Y-72355516I-1672335J1078608D01*
G01*
X142642335Y-70041392D02*
G75*
G03X139410000Y-69884484I-1672335J-1078608D01*
G01*
X139850000Y-83050000D02*
X139850000Y-87090000D01*
X137010000Y-83050000D02*
X137010000Y-87090000D01*
X139850000Y-83050000D02*
X139225000Y-83050000D01*
X137635000Y-83050000D02*
X137010000Y-83050000D01*
X139850000Y-87090000D02*
X139225000Y-87090000D01*
X137635000Y-87090000D02*
X137010000Y-87090000D01*
X141445000Y-94075000D02*
X140820000Y-94075000D01*
X143660000Y-94075000D02*
X143035000Y-94075000D01*
X141445000Y-90035000D02*
X140820000Y-90035000D01*
X143660000Y-90035000D02*
X143035000Y-90035000D01*
X140820000Y-90035000D02*
X140820000Y-94075000D01*
X143660000Y-90035000D02*
X143660000Y-94075000D01*
X139850000Y-89400000D02*
X139850000Y-93440000D01*
X137010000Y-89400000D02*
X137010000Y-93440000D01*
X139850000Y-89400000D02*
X139225000Y-89400000D01*
X137635000Y-89400000D02*
X137010000Y-89400000D01*
X139850000Y-93440000D02*
X139225000Y-93440000D01*
X137635000Y-93440000D02*
X137010000Y-93440000D01*
X83788000Y-78392000D02*
X83788000Y-79017000D01*
X83788000Y-76177000D02*
X83788000Y-76802000D01*
X79748000Y-78392000D02*
X79748000Y-79017000D01*
X79748000Y-76177000D02*
X79748000Y-76802000D01*
X79748000Y-79017000D02*
X83788000Y-79017000D01*
X79748000Y-76177000D02*
X83788000Y-76177000D01*
X144630000Y-94750000D02*
X144630000Y-90710000D01*
X147470000Y-94750000D02*
X147470000Y-90710000D01*
X144630000Y-94750000D02*
X145255000Y-94750000D01*
X146845000Y-94750000D02*
X147470000Y-94750000D01*
X144630000Y-90710000D02*
X145255000Y-90710000D01*
X146845000Y-90710000D02*
X147470000Y-90710000D01*
X123250000Y-92770000D02*
X121920000Y-92770000D01*
X123250000Y-91440000D02*
X123250000Y-92770000D01*
X123250000Y-90170000D02*
X120590000Y-90170000D01*
X120590000Y-90170000D02*
X120590000Y-85030000D01*
X123250000Y-90170000D02*
X123250000Y-85030000D01*
X123250000Y-85030000D02*
X120590000Y-85030000D01*
X120590000Y-85150000D02*
X123250000Y-85150000D01*
X120590000Y-80010000D02*
X120590000Y-85150000D01*
X123250000Y-80010000D02*
X123250000Y-85150000D01*
X120590000Y-80010000D02*
X123250000Y-80010000D01*
X120590000Y-78740000D02*
X120590000Y-77410000D01*
X120590000Y-77410000D02*
X121920000Y-77410000D01*
X138557000Y-106910000D02*
X138557000Y-106140000D01*
X138557000Y-98830000D02*
X138557000Y-99600000D01*
X139927000Y-106140000D02*
X139927000Y-99600000D01*
X137187000Y-106140000D02*
X139927000Y-106140000D01*
X137187000Y-99600000D02*
X137187000Y-106140000D01*
X139927000Y-99600000D02*
X137187000Y-99600000D01*
D10*
X134320000Y-75280000D02*
X134320000Y-75080000D01*
X134320000Y-75080000D02*
X134020000Y-75080000D01*
X127720000Y-75080000D02*
X127420000Y-75080000D01*
X127420000Y-75080000D02*
X127420000Y-75280000D01*
X134700000Y-95180000D02*
X134950000Y-95180000D01*
X134320000Y-95180000D02*
X134690000Y-95180000D01*
X133020000Y-96180000D02*
X133320000Y-96180000D01*
X133320000Y-96180000D02*
X134320000Y-95180000D01*
X127340000Y-95590000D02*
X127340000Y-95990000D01*
X127340000Y-95990000D02*
X127740000Y-95990000D01*
D12*
X146595000Y-81185000D02*
X147220000Y-81185000D01*
X144380000Y-81185000D02*
X145005000Y-81185000D01*
X146595000Y-85225000D02*
X147220000Y-85225000D01*
X144380000Y-85225000D02*
X145005000Y-85225000D01*
X147220000Y-85225000D02*
X147220000Y-81185000D01*
X144380000Y-85225000D02*
X144380000Y-81185000D01*
X140870000Y-85820000D02*
X143610000Y-85820000D01*
X143610000Y-85820000D02*
X143610000Y-79280000D01*
X143610000Y-79280000D02*
X140870000Y-79280000D01*
X140870000Y-79280000D02*
X140870000Y-85820000D01*
X142240000Y-86590000D02*
X142240000Y-85820000D01*
X142240000Y-78510000D02*
X142240000Y-79280000D01*
D13*
X148252000Y-90678000D02*
X148252000Y-99822000D01*
X148252000Y-99822000D02*
X160190000Y-99822000D01*
X160190000Y-99822000D02*
X160190000Y-97790000D01*
X160190000Y-97790000D02*
X167810000Y-97790000D01*
X167810000Y-97790000D02*
X167810000Y-92710000D01*
X167810000Y-92710000D02*
X160190000Y-92710000D01*
X160190000Y-92710000D02*
X160190000Y-90678000D01*
X160190000Y-90678000D02*
X148252000Y-90678000D01*
X101357133Y-68270380D02*
X101023800Y-67794190D01*
X100785704Y-68270380D02*
X100785704Y-67270380D01*
X101166657Y-67270380D01*
X101261895Y-67318000D01*
X101309514Y-67365619D01*
X101357133Y-67460857D01*
X101357133Y-67603714D01*
X101309514Y-67698952D01*
X101261895Y-67746571D01*
X101166657Y-67794190D01*
X100785704Y-67794190D01*
X102261895Y-67270380D02*
X101785704Y-67270380D01*
X101738085Y-67746571D01*
X101785704Y-67698952D01*
X101880942Y-67651333D01*
X102119038Y-67651333D01*
X102214276Y-67698952D01*
X102261895Y-67746571D01*
X102309514Y-67841809D01*
X102309514Y-68079904D01*
X102261895Y-68175142D01*
X102214276Y-68222761D01*
X102119038Y-68270380D01*
X101880942Y-68270380D01*
X101785704Y-68222761D01*
X101738085Y-68175142D01*
X97166133Y-68346580D02*
X96832800Y-67870390D01*
X96594704Y-68346580D02*
X96594704Y-67346580D01*
X96975657Y-67346580D01*
X97070895Y-67394200D01*
X97118514Y-67441819D01*
X97166133Y-67537057D01*
X97166133Y-67679914D01*
X97118514Y-67775152D01*
X97070895Y-67822771D01*
X96975657Y-67870390D01*
X96594704Y-67870390D01*
X98118514Y-68346580D02*
X97547085Y-68346580D01*
X97832800Y-68346580D02*
X97832800Y-67346580D01*
X97737561Y-67489438D01*
X97642323Y-67584676D01*
X97547085Y-67632295D01*
X132192733Y-107894380D02*
X131859400Y-107418190D01*
X131621304Y-107894380D02*
X131621304Y-106894380D01*
X132002257Y-106894380D01*
X132097495Y-106942000D01*
X132145114Y-106989619D01*
X132192733Y-107084857D01*
X132192733Y-107227714D01*
X132145114Y-107322952D01*
X132097495Y-107370571D01*
X132002257Y-107418190D01*
X131621304Y-107418190D01*
X133049876Y-107227714D02*
X133049876Y-107894380D01*
X132811780Y-106846761D02*
X132573685Y-107561047D01*
X133192733Y-107561047D01*
X113966666Y-98252380D02*
X113966666Y-98966666D01*
X113919047Y-99109523D01*
X113823809Y-99204761D01*
X113680952Y-99252380D01*
X113585714Y-99252380D01*
X114395238Y-98347619D02*
X114442857Y-98300000D01*
X114538095Y-98252380D01*
X114776190Y-98252380D01*
X114871428Y-98300000D01*
X114919047Y-98347619D01*
X114966666Y-98442857D01*
X114966666Y-98538095D01*
X114919047Y-98680952D01*
X114347619Y-99252380D01*
X114966666Y-99252380D01*
X137583942Y-75261742D02*
X137536323Y-75309361D01*
X137393466Y-75356980D01*
X137298228Y-75356980D01*
X137155371Y-75309361D01*
X137060133Y-75214123D01*
X137012514Y-75118885D01*
X136964895Y-74928409D01*
X136964895Y-74785552D01*
X137012514Y-74595076D01*
X137060133Y-74499838D01*
X137155371Y-74404600D01*
X137298228Y-74356980D01*
X137393466Y-74356980D01*
X137536323Y-74404600D01*
X137583942Y-74452219D01*
X138536323Y-75356980D02*
X137964895Y-75356980D01*
X138250609Y-75356980D02*
X138250609Y-74356980D01*
X138155371Y-74499838D01*
X138060133Y-74595076D01*
X137964895Y-74642695D01*
X139488704Y-75356980D02*
X138917276Y-75356980D01*
X139202990Y-75356980D02*
X139202990Y-74356980D01*
X139107752Y-74499838D01*
X139012514Y-74595076D01*
X138917276Y-74642695D01*
X96251733Y-78690742D02*
X96204114Y-78738361D01*
X96061257Y-78785980D01*
X95966019Y-78785980D01*
X95823161Y-78738361D01*
X95727923Y-78643123D01*
X95680304Y-78547885D01*
X95632685Y-78357409D01*
X95632685Y-78214552D01*
X95680304Y-78024076D01*
X95727923Y-77928838D01*
X95823161Y-77833600D01*
X95966019Y-77785980D01*
X96061257Y-77785980D01*
X96204114Y-77833600D01*
X96251733Y-77881219D01*
X97204114Y-78785980D02*
X96632685Y-78785980D01*
X96918400Y-78785980D02*
X96918400Y-77785980D01*
X96823161Y-77928838D01*
X96727923Y-78024076D01*
X96632685Y-78071695D01*
X81327666Y-67854580D02*
X81327666Y-68568866D01*
X81280047Y-68711723D01*
X81184809Y-68806961D01*
X81041952Y-68854580D01*
X80946714Y-68854580D01*
X82327666Y-68854580D02*
X81756238Y-68854580D01*
X82041952Y-68854580D02*
X82041952Y-67854580D01*
X81946714Y-67997438D01*
X81851476Y-68092676D01*
X81756238Y-68140295D01*
X88822304Y-68219580D02*
X88822304Y-67219580D01*
X89060400Y-67219580D01*
X89203257Y-67267200D01*
X89298495Y-67362438D01*
X89346114Y-67457676D01*
X89393733Y-67648152D01*
X89393733Y-67791009D01*
X89346114Y-67981485D01*
X89298495Y-68076723D01*
X89203257Y-68171961D01*
X89060400Y-68219580D01*
X88822304Y-68219580D01*
X89727066Y-67219580D02*
X90393733Y-67219580D01*
X89965161Y-68219580D01*
X111426666Y-67397380D02*
X111426666Y-68111666D01*
X111379047Y-68254523D01*
X111283809Y-68349761D01*
X111140952Y-68397380D01*
X111045714Y-68397380D01*
X112045714Y-67825952D02*
X111950476Y-67778333D01*
X111902857Y-67730714D01*
X111855238Y-67635476D01*
X111855238Y-67587857D01*
X111902857Y-67492619D01*
X111950476Y-67445000D01*
X112045714Y-67397380D01*
X112236190Y-67397380D01*
X112331428Y-67445000D01*
X112379047Y-67492619D01*
X112426666Y-67587857D01*
X112426666Y-67635476D01*
X112379047Y-67730714D01*
X112331428Y-67778333D01*
X112236190Y-67825952D01*
X112045714Y-67825952D01*
X111950476Y-67873571D01*
X111902857Y-67921190D01*
X111855238Y-68016428D01*
X111855238Y-68206904D01*
X111902857Y-68302142D01*
X111950476Y-68349761D01*
X112045714Y-68397380D01*
X112236190Y-68397380D01*
X112331428Y-68349761D01*
X112379047Y-68302142D01*
X112426666Y-68206904D01*
X112426666Y-68016428D01*
X112379047Y-67921190D01*
X112331428Y-67873571D01*
X112236190Y-67825952D01*
X107529333Y-79039980D02*
X107196000Y-78563790D01*
X106957904Y-79039980D02*
X106957904Y-78039980D01*
X107338857Y-78039980D01*
X107434095Y-78087600D01*
X107481714Y-78135219D01*
X107529333Y-78230457D01*
X107529333Y-78373314D01*
X107481714Y-78468552D01*
X107434095Y-78516171D01*
X107338857Y-78563790D01*
X106957904Y-78563790D01*
X108100761Y-78468552D02*
X108005523Y-78420933D01*
X107957904Y-78373314D01*
X107910285Y-78278076D01*
X107910285Y-78230457D01*
X107957904Y-78135219D01*
X108005523Y-78087600D01*
X108100761Y-78039980D01*
X108291238Y-78039980D01*
X108386476Y-78087600D01*
X108434095Y-78135219D01*
X108481714Y-78230457D01*
X108481714Y-78278076D01*
X108434095Y-78373314D01*
X108386476Y-78420933D01*
X108291238Y-78468552D01*
X108100761Y-78468552D01*
X108005523Y-78516171D01*
X107957904Y-78563790D01*
X107910285Y-78659028D01*
X107910285Y-78849504D01*
X107957904Y-78944742D01*
X108005523Y-78992361D01*
X108100761Y-79039980D01*
X108291238Y-79039980D01*
X108386476Y-78992361D01*
X108434095Y-78944742D01*
X108481714Y-78849504D01*
X108481714Y-78659028D01*
X108434095Y-78563790D01*
X108386476Y-78516171D01*
X108291238Y-78468552D01*
X137442380Y-71286666D02*
X136966190Y-71620000D01*
X137442380Y-71858095D02*
X136442380Y-71858095D01*
X136442380Y-71477142D01*
X136490000Y-71381904D01*
X136537619Y-71334285D01*
X136632857Y-71286666D01*
X136775714Y-71286666D01*
X136870952Y-71334285D01*
X136918571Y-71381904D01*
X136966190Y-71477142D01*
X136966190Y-71858095D01*
X137442380Y-70810476D02*
X137442380Y-70620000D01*
X137394761Y-70524761D01*
X137347142Y-70477142D01*
X137204285Y-70381904D01*
X137013809Y-70334285D01*
X136632857Y-70334285D01*
X136537619Y-70381904D01*
X136490000Y-70429523D01*
X136442380Y-70524761D01*
X136442380Y-70715238D01*
X136490000Y-70810476D01*
X136537619Y-70858095D01*
X136632857Y-70905714D01*
X136870952Y-70905714D01*
X136966190Y-70858095D01*
X137013809Y-70810476D01*
X137061428Y-70715238D01*
X137061428Y-70524761D01*
X137013809Y-70429523D01*
X136966190Y-70381904D01*
X136870952Y-70334285D01*
X128627142Y-71742857D02*
X128674761Y-71790476D01*
X128722380Y-71933333D01*
X128722380Y-72028571D01*
X128674761Y-72171428D01*
X128579523Y-72266666D01*
X128484285Y-72314285D01*
X128293809Y-72361904D01*
X128150952Y-72361904D01*
X127960476Y-72314285D01*
X127865238Y-72266666D01*
X127770000Y-72171428D01*
X127722380Y-72028571D01*
X127722380Y-71933333D01*
X127770000Y-71790476D01*
X127817619Y-71742857D01*
X128722380Y-70790476D02*
X128722380Y-71361904D01*
X128722380Y-71076190D02*
X127722380Y-71076190D01*
X127865238Y-71171428D01*
X127960476Y-71266666D01*
X128008095Y-71361904D01*
X127722380Y-70171428D02*
X127722380Y-70076190D01*
X127770000Y-69980952D01*
X127817619Y-69933333D01*
X127912857Y-69885714D01*
X128103333Y-69838095D01*
X128341428Y-69838095D01*
X128531904Y-69885714D01*
X128627142Y-69933333D01*
X128674761Y-69980952D01*
X128722380Y-70076190D01*
X128722380Y-70171428D01*
X128674761Y-70266666D01*
X128627142Y-70314285D01*
X128531904Y-70361904D01*
X128341428Y-70409523D01*
X128103333Y-70409523D01*
X127912857Y-70361904D01*
X127817619Y-70314285D01*
X127770000Y-70266666D01*
X127722380Y-70171428D01*
X106614933Y-67819542D02*
X106567314Y-67867161D01*
X106424457Y-67914780D01*
X106329219Y-67914780D01*
X106186361Y-67867161D01*
X106091123Y-67771923D01*
X106043504Y-67676685D01*
X105995885Y-67486209D01*
X105995885Y-67343352D01*
X106043504Y-67152876D01*
X106091123Y-67057638D01*
X106186361Y-66962400D01*
X106329219Y-66914780D01*
X106424457Y-66914780D01*
X106567314Y-66962400D01*
X106614933Y-67010019D01*
X107091123Y-67914780D02*
X107281600Y-67914780D01*
X107376838Y-67867161D01*
X107424457Y-67819542D01*
X107519695Y-67676685D01*
X107567314Y-67486209D01*
X107567314Y-67105257D01*
X107519695Y-67010019D01*
X107472076Y-66962400D01*
X107376838Y-66914780D01*
X107186361Y-66914780D01*
X107091123Y-66962400D01*
X107043504Y-67010019D01*
X106995885Y-67105257D01*
X106995885Y-67343352D01*
X107043504Y-67438590D01*
X107091123Y-67486209D01*
X107186361Y-67533828D01*
X107376838Y-67533828D01*
X107472076Y-67486209D01*
X107519695Y-67438590D01*
X107567314Y-67343352D01*
X69171380Y-100075904D02*
X69980904Y-100075904D01*
X70076142Y-100028285D01*
X70123761Y-99980666D01*
X70171380Y-99885428D01*
X70171380Y-99694952D01*
X70123761Y-99599714D01*
X70076142Y-99552095D01*
X69980904Y-99504476D01*
X69171380Y-99504476D01*
X69266619Y-99075904D02*
X69219000Y-99028285D01*
X69171380Y-98933047D01*
X69171380Y-98694952D01*
X69219000Y-98599714D01*
X69266619Y-98552095D01*
X69361857Y-98504476D01*
X69457095Y-98504476D01*
X69599952Y-98552095D01*
X70171380Y-99123523D01*
X70171380Y-98504476D01*
X147986904Y-76287380D02*
X148558333Y-76287380D01*
X148272619Y-77287380D02*
X148272619Y-76287380D01*
X148796428Y-76287380D02*
X149463095Y-77287380D01*
X149463095Y-76287380D02*
X148796428Y-77287380D01*
X150367857Y-77287380D02*
X149796428Y-77287380D01*
X150082142Y-77287380D02*
X150082142Y-76287380D01*
X149986904Y-76430238D01*
X149891666Y-76525476D01*
X149796428Y-76573095D01*
X119046666Y-67397380D02*
X119046666Y-68111666D01*
X118999047Y-68254523D01*
X118903809Y-68349761D01*
X118760952Y-68397380D01*
X118665714Y-68397380D01*
X119570476Y-68397380D02*
X119760952Y-68397380D01*
X119856190Y-68349761D01*
X119903809Y-68302142D01*
X119999047Y-68159285D01*
X120046666Y-67968809D01*
X120046666Y-67587857D01*
X119999047Y-67492619D01*
X119951428Y-67445000D01*
X119856190Y-67397380D01*
X119665714Y-67397380D01*
X119570476Y-67445000D01*
X119522857Y-67492619D01*
X119475238Y-67587857D01*
X119475238Y-67825952D01*
X119522857Y-67921190D01*
X119570476Y-67968809D01*
X119665714Y-68016428D01*
X119856190Y-68016428D01*
X119951428Y-67968809D01*
X119999047Y-67921190D01*
X120046666Y-67825952D01*
X91106666Y-99472380D02*
X91106666Y-100186666D01*
X91059047Y-100329523D01*
X90963809Y-100424761D01*
X90820952Y-100472380D01*
X90725714Y-100472380D01*
X91487619Y-99472380D02*
X92154285Y-99472380D01*
X91725714Y-100472380D01*
X83486666Y-99472380D02*
X83486666Y-100186666D01*
X83439047Y-100329523D01*
X83343809Y-100424761D01*
X83200952Y-100472380D01*
X83105714Y-100472380D01*
X84391428Y-99472380D02*
X84200952Y-99472380D01*
X84105714Y-99520000D01*
X84058095Y-99567619D01*
X83962857Y-99710476D01*
X83915238Y-99900952D01*
X83915238Y-100281904D01*
X83962857Y-100377142D01*
X84010476Y-100424761D01*
X84105714Y-100472380D01*
X84296190Y-100472380D01*
X84391428Y-100424761D01*
X84439047Y-100377142D01*
X84486666Y-100281904D01*
X84486666Y-100043809D01*
X84439047Y-99948571D01*
X84391428Y-99900952D01*
X84296190Y-99853333D01*
X84105714Y-99853333D01*
X84010476Y-99900952D01*
X83962857Y-99948571D01*
X83915238Y-100043809D01*
X124471133Y-97943942D02*
X124423514Y-97991561D01*
X124280657Y-98039180D01*
X124185419Y-98039180D01*
X124042561Y-97991561D01*
X123947323Y-97896323D01*
X123899704Y-97801085D01*
X123852085Y-97610609D01*
X123852085Y-97467752D01*
X123899704Y-97277276D01*
X123947323Y-97182038D01*
X124042561Y-97086800D01*
X124185419Y-97039180D01*
X124280657Y-97039180D01*
X124423514Y-97086800D01*
X124471133Y-97134419D01*
X125375895Y-97039180D02*
X124899704Y-97039180D01*
X124852085Y-97515371D01*
X124899704Y-97467752D01*
X124994942Y-97420133D01*
X125233038Y-97420133D01*
X125328276Y-97467752D01*
X125375895Y-97515371D01*
X125423514Y-97610609D01*
X125423514Y-97848704D01*
X125375895Y-97943942D01*
X125328276Y-97991561D01*
X125233038Y-98039180D01*
X124994942Y-98039180D01*
X124899704Y-97991561D01*
X124852085Y-97943942D01*
X143406904Y-97777745D02*
X143406904Y-96777745D01*
X143645000Y-96777745D01*
X143787857Y-96825365D01*
X143883095Y-96920603D01*
X143930714Y-97015841D01*
X143978333Y-97206317D01*
X143978333Y-97349174D01*
X143930714Y-97539650D01*
X143883095Y-97634888D01*
X143787857Y-97730126D01*
X143645000Y-97777745D01*
X143406904Y-97777745D01*
X144549761Y-97206317D02*
X144454523Y-97158698D01*
X144406904Y-97111079D01*
X144359285Y-97015841D01*
X144359285Y-96968222D01*
X144406904Y-96872984D01*
X144454523Y-96825365D01*
X144549761Y-96777745D01*
X144740238Y-96777745D01*
X144835476Y-96825365D01*
X144883095Y-96872984D01*
X144930714Y-96968222D01*
X144930714Y-97015841D01*
X144883095Y-97111079D01*
X144835476Y-97158698D01*
X144740238Y-97206317D01*
X144549761Y-97206317D01*
X144454523Y-97253936D01*
X144406904Y-97301555D01*
X144359285Y-97396793D01*
X144359285Y-97587269D01*
X144406904Y-97682507D01*
X144454523Y-97730126D01*
X144549761Y-97777745D01*
X144740238Y-97777745D01*
X144835476Y-97730126D01*
X144883095Y-97682507D01*
X144930714Y-97587269D01*
X144930714Y-97396793D01*
X144883095Y-97301555D01*
X144835476Y-97253936D01*
X144740238Y-97206317D01*
X144011904Y-101342666D02*
X144488095Y-101342666D01*
X143916666Y-101628380D02*
X144250000Y-100628380D01*
X144583333Y-101628380D01*
X148055104Y-75204580D02*
X148055104Y-74204580D01*
X148293200Y-74204580D01*
X148436057Y-74252200D01*
X148531295Y-74347438D01*
X148578914Y-74442676D01*
X148626533Y-74633152D01*
X148626533Y-74776009D01*
X148578914Y-74966485D01*
X148531295Y-75061723D01*
X148436057Y-75156961D01*
X148293200Y-75204580D01*
X148055104Y-75204580D01*
X149483676Y-74537914D02*
X149483676Y-75204580D01*
X149245580Y-74156961D02*
X149007485Y-74871247D01*
X149626533Y-74871247D01*
X145116666Y-77813095D02*
X145116666Y-77336904D01*
X145402380Y-77908333D02*
X144402380Y-77575000D01*
X145402380Y-77241666D01*
X144041904Y-109672380D02*
X144041904Y-108672380D01*
X144280000Y-108672380D01*
X144422857Y-108720000D01*
X144518095Y-108815238D01*
X144565714Y-108910476D01*
X144613333Y-109100952D01*
X144613333Y-109243809D01*
X144565714Y-109434285D01*
X144518095Y-109529523D01*
X144422857Y-109624761D01*
X144280000Y-109672380D01*
X144041904Y-109672380D01*
X144994285Y-108767619D02*
X145041904Y-108720000D01*
X145137142Y-108672380D01*
X145375238Y-108672380D01*
X145470476Y-108720000D01*
X145518095Y-108767619D01*
X145565714Y-108862857D01*
X145565714Y-108958095D01*
X145518095Y-109100952D01*
X144946666Y-109672380D01*
X145565714Y-109672380D01*
X144835714Y-68397380D02*
X144835714Y-67397380D01*
X145073809Y-67397380D01*
X145216666Y-67445000D01*
X145311904Y-67540238D01*
X145359523Y-67635476D01*
X145407142Y-67825952D01*
X145407142Y-67968809D01*
X145359523Y-68159285D01*
X145311904Y-68254523D01*
X145216666Y-68349761D01*
X145073809Y-68397380D01*
X144835714Y-68397380D01*
X146359523Y-68397380D02*
X145788095Y-68397380D01*
X146073809Y-68397380D02*
X146073809Y-67397380D01*
X145978571Y-67540238D01*
X145883333Y-67635476D01*
X145788095Y-67683095D01*
X146740476Y-67492619D02*
X146788095Y-67445000D01*
X146883333Y-67397380D01*
X147121428Y-67397380D01*
X147216666Y-67445000D01*
X147264285Y-67492619D01*
X147311904Y-67587857D01*
X147311904Y-67683095D01*
X147264285Y-67825952D01*
X146692857Y-68397380D01*
X147311904Y-68397380D01*
X140231904Y-68397380D02*
X140231904Y-67397380D01*
X140470000Y-67397380D01*
X140612857Y-67445000D01*
X140708095Y-67540238D01*
X140755714Y-67635476D01*
X140803333Y-67825952D01*
X140803333Y-67968809D01*
X140755714Y-68159285D01*
X140708095Y-68254523D01*
X140612857Y-68349761D01*
X140470000Y-68397380D01*
X140231904Y-68397380D01*
X141660476Y-67397380D02*
X141470000Y-67397380D01*
X141374761Y-67445000D01*
X141327142Y-67492619D01*
X141231904Y-67635476D01*
X141184285Y-67825952D01*
X141184285Y-68206904D01*
X141231904Y-68302142D01*
X141279523Y-68349761D01*
X141374761Y-68397380D01*
X141565238Y-68397380D01*
X141660476Y-68349761D01*
X141708095Y-68302142D01*
X141755714Y-68206904D01*
X141755714Y-67968809D01*
X141708095Y-67873571D01*
X141660476Y-67825952D01*
X141565238Y-67778333D01*
X141374761Y-67778333D01*
X141279523Y-67825952D01*
X141231904Y-67873571D01*
X141184285Y-67968809D01*
X138491933Y-82170542D02*
X138444314Y-82218161D01*
X138301457Y-82265780D01*
X138206219Y-82265780D01*
X138063361Y-82218161D01*
X137968123Y-82122923D01*
X137920504Y-82027685D01*
X137872885Y-81837209D01*
X137872885Y-81694352D01*
X137920504Y-81503876D01*
X137968123Y-81408638D01*
X138063361Y-81313400D01*
X138206219Y-81265780D01*
X138301457Y-81265780D01*
X138444314Y-81313400D01*
X138491933Y-81361019D01*
X138825266Y-81265780D02*
X139491933Y-81265780D01*
X139063361Y-82265780D01*
X142530533Y-95607142D02*
X142482914Y-95654761D01*
X142340057Y-95702380D01*
X142244819Y-95702380D01*
X142101961Y-95654761D01*
X142006723Y-95559523D01*
X141959104Y-95464285D01*
X141911485Y-95273809D01*
X141911485Y-95130952D01*
X141959104Y-94940476D01*
X142006723Y-94845238D01*
X142101961Y-94750000D01*
X142244819Y-94702380D01*
X142340057Y-94702380D01*
X142482914Y-94750000D01*
X142530533Y-94797619D01*
X143101961Y-95130952D02*
X143006723Y-95083333D01*
X142959104Y-95035714D01*
X142911485Y-94940476D01*
X142911485Y-94892857D01*
X142959104Y-94797619D01*
X143006723Y-94750000D01*
X143101961Y-94702380D01*
X143292438Y-94702380D01*
X143387676Y-94750000D01*
X143435295Y-94797619D01*
X143482914Y-94892857D01*
X143482914Y-94940476D01*
X143435295Y-95035714D01*
X143387676Y-95083333D01*
X143292438Y-95130952D01*
X143101961Y-95130952D01*
X143006723Y-95178571D01*
X142959104Y-95226190D01*
X142911485Y-95321428D01*
X142911485Y-95511904D01*
X142959104Y-95607142D01*
X143006723Y-95654761D01*
X143101961Y-95702380D01*
X143292438Y-95702380D01*
X143387676Y-95654761D01*
X143435295Y-95607142D01*
X143482914Y-95511904D01*
X143482914Y-95321428D01*
X143435295Y-95226190D01*
X143387676Y-95178571D01*
X143292438Y-95130952D01*
X137196533Y-94743542D02*
X137148914Y-94791161D01*
X137006057Y-94838780D01*
X136910819Y-94838780D01*
X136767961Y-94791161D01*
X136672723Y-94695923D01*
X136625104Y-94600685D01*
X136577485Y-94410209D01*
X136577485Y-94267352D01*
X136625104Y-94076876D01*
X136672723Y-93981638D01*
X136767961Y-93886400D01*
X136910819Y-93838780D01*
X137006057Y-93838780D01*
X137148914Y-93886400D01*
X137196533Y-93934019D01*
X138053676Y-93838780D02*
X137863200Y-93838780D01*
X137767961Y-93886400D01*
X137720342Y-93934019D01*
X137625104Y-94076876D01*
X137577485Y-94267352D01*
X137577485Y-94648304D01*
X137625104Y-94743542D01*
X137672723Y-94791161D01*
X137767961Y-94838780D01*
X137958438Y-94838780D01*
X138053676Y-94791161D01*
X138101295Y-94743542D01*
X138148914Y-94648304D01*
X138148914Y-94410209D01*
X138101295Y-94314971D01*
X138053676Y-94267352D01*
X137958438Y-94219733D01*
X137767961Y-94219733D01*
X137672723Y-94267352D01*
X137625104Y-94314971D01*
X137577485Y-94410209D01*
X78116133Y-78690742D02*
X78068514Y-78738361D01*
X77925657Y-78785980D01*
X77830419Y-78785980D01*
X77687561Y-78738361D01*
X77592323Y-78643123D01*
X77544704Y-78547885D01*
X77497085Y-78357409D01*
X77497085Y-78214552D01*
X77544704Y-78024076D01*
X77592323Y-77928838D01*
X77687561Y-77833600D01*
X77830419Y-77785980D01*
X77925657Y-77785980D01*
X78068514Y-77833600D01*
X78116133Y-77881219D01*
X78973276Y-78119314D02*
X78973276Y-78785980D01*
X78735180Y-77738361D02*
X78497085Y-78452647D01*
X79116133Y-78452647D01*
X145629333Y-90095342D02*
X145581714Y-90142961D01*
X145438857Y-90190580D01*
X145343619Y-90190580D01*
X145200761Y-90142961D01*
X145105523Y-90047723D01*
X145057904Y-89952485D01*
X145010285Y-89762009D01*
X145010285Y-89619152D01*
X145057904Y-89428676D01*
X145105523Y-89333438D01*
X145200761Y-89238200D01*
X145343619Y-89190580D01*
X145438857Y-89190580D01*
X145581714Y-89238200D01*
X145629333Y-89285819D01*
X146010285Y-89285819D02*
X146057904Y-89238200D01*
X146153142Y-89190580D01*
X146391238Y-89190580D01*
X146486476Y-89238200D01*
X146534095Y-89285819D01*
X146581714Y-89381057D01*
X146581714Y-89476295D01*
X146534095Y-89619152D01*
X145962666Y-90190580D01*
X146581714Y-90190580D01*
X125058419Y-88211066D02*
X124344133Y-88211066D01*
X124201276Y-88163447D01*
X124106038Y-88068209D01*
X124058419Y-87925352D01*
X124058419Y-87830114D01*
X124725085Y-89115828D02*
X124058419Y-89115828D01*
X125106038Y-88877733D02*
X124391752Y-88639638D01*
X124391752Y-89258685D01*
X125134619Y-80845066D02*
X124420333Y-80845066D01*
X124277476Y-80797447D01*
X124182238Y-80702209D01*
X124134619Y-80559352D01*
X124134619Y-80464114D01*
X125134619Y-81797447D02*
X125134619Y-81321257D01*
X124658428Y-81273638D01*
X124706047Y-81321257D01*
X124753666Y-81416495D01*
X124753666Y-81654590D01*
X124706047Y-81749828D01*
X124658428Y-81797447D01*
X124563190Y-81845066D01*
X124325095Y-81845066D01*
X124229857Y-81797447D01*
X124182238Y-81749828D01*
X124134619Y-81654590D01*
X124134619Y-81416495D01*
X124182238Y-81321257D01*
X124229857Y-81273638D01*
X139609533Y-96438980D02*
X139276200Y-95962790D01*
X139038104Y-96438980D02*
X139038104Y-95438980D01*
X139419057Y-95438980D01*
X139514295Y-95486600D01*
X139561914Y-95534219D01*
X139609533Y-95629457D01*
X139609533Y-95772314D01*
X139561914Y-95867552D01*
X139514295Y-95915171D01*
X139419057Y-95962790D01*
X139038104Y-95962790D01*
X139990485Y-95534219D02*
X140038104Y-95486600D01*
X140133342Y-95438980D01*
X140371438Y-95438980D01*
X140466676Y-95486600D01*
X140514295Y-95534219D01*
X140561914Y-95629457D01*
X140561914Y-95724695D01*
X140514295Y-95867552D01*
X139942866Y-96438980D01*
X140561914Y-96438980D01*
X129918095Y-96632380D02*
X129918095Y-97441904D01*
X129965714Y-97537142D01*
X130013333Y-97584761D01*
X130108571Y-97632380D01*
X130299047Y-97632380D01*
X130394285Y-97584761D01*
X130441904Y-97537142D01*
X130489523Y-97441904D01*
X130489523Y-96632380D01*
X131489523Y-97632380D02*
X130918095Y-97632380D01*
X131203809Y-97632380D02*
X131203809Y-96632380D01*
X131108571Y-96775238D01*
X131013333Y-96870476D01*
X130918095Y-96918095D01*
X145553133Y-86717142D02*
X145505514Y-86764761D01*
X145362657Y-86812380D01*
X145267419Y-86812380D01*
X145124561Y-86764761D01*
X145029323Y-86669523D01*
X144981704Y-86574285D01*
X144934085Y-86383809D01*
X144934085Y-86240952D01*
X144981704Y-86050476D01*
X145029323Y-85955238D01*
X145124561Y-85860000D01*
X145267419Y-85812380D01*
X145362657Y-85812380D01*
X145505514Y-85860000D01*
X145553133Y-85907619D01*
X145886466Y-85812380D02*
X146505514Y-85812380D01*
X146172180Y-86193333D01*
X146315038Y-86193333D01*
X146410276Y-86240952D01*
X146457895Y-86288571D01*
X146505514Y-86383809D01*
X146505514Y-86621904D01*
X146457895Y-86717142D01*
X146410276Y-86764761D01*
X146315038Y-86812380D01*
X146029323Y-86812380D01*
X145934085Y-86764761D01*
X145886466Y-86717142D01*
X141743133Y-76118980D02*
X141409800Y-75642790D01*
X141171704Y-76118980D02*
X141171704Y-75118980D01*
X141552657Y-75118980D01*
X141647895Y-75166600D01*
X141695514Y-75214219D01*
X141743133Y-75309457D01*
X141743133Y-75452314D01*
X141695514Y-75547552D01*
X141647895Y-75595171D01*
X141552657Y-75642790D01*
X141171704Y-75642790D01*
X142076466Y-75118980D02*
X142695514Y-75118980D01*
X142362180Y-75499933D01*
X142505038Y-75499933D01*
X142600276Y-75547552D01*
X142647895Y-75595171D01*
X142695514Y-75690409D01*
X142695514Y-75928504D01*
X142647895Y-76023742D01*
X142600276Y-76071361D01*
X142505038Y-76118980D01*
X142219323Y-76118980D01*
X142124085Y-76071361D01*
X142076466Y-76023742D01*
X148582142Y-89987380D02*
X148248809Y-89511190D01*
X148010714Y-89987380D02*
X148010714Y-88987380D01*
X148391666Y-88987380D01*
X148486904Y-89035000D01*
X148534523Y-89082619D01*
X148582142Y-89177857D01*
X148582142Y-89320714D01*
X148534523Y-89415952D01*
X148486904Y-89463571D01*
X148391666Y-89511190D01*
X148010714Y-89511190D01*
X148915476Y-88987380D02*
X149582142Y-89987380D01*
X149582142Y-88987380D02*
X148915476Y-89987380D01*
X150486904Y-89987380D02*
X149915476Y-89987380D01*
X150201190Y-89987380D02*
X150201190Y-88987380D01*
X150105952Y-89130238D01*
X150010714Y-89225476D01*
X149915476Y-89273095D01*
M02*
